<!DOCTYPE svg PUBLIC "-//W3C//DTD SVG 1.1//EN" "http://www.w3.org/Graphics/SVG/1.1/DTD/svg11.dtd">
<!-- Uploaded to: SVG Repo, www.svgrepo.com, Transformed by: SVG Repo Mixer Tools -->
<svg width="64px" height="64px" viewBox="-9.6 -9.6 67.20 67.20" id="b" xmlns="http://www.w3.org/2000/svg" fill="#ff0000" stroke="#ff0000" stroke-width="1.344">
<g id="SVGRepo_bgCarrier" stroke-width="0">
<path transform="translate(-9.6, -9.6), scale(2.1)" d="M16,28.380033270401114C18.712199589962758,28.770266507160215,21.53206562027431,31.057756535205325,23.957610340898526,29.782985417271746C26.359013964795857,28.520901912393082,26.06600400372112,24.933562455465985,27.224870351020947,22.480681918780597C28.27474155163591,20.258502769290896,30.35164107290786,18.45488145206869,30.469398308764486,16C30.588471930227556,13.517675897927525,29.7096502965392,10.814723004262133,27.86431818541969,9.150132701896572C26.070693705237762,7.532185505397072,23.101998173056135,8.524609534221131,20.95507399913143,7.417560078240868C18.96075288555158,6.389199537774034,18.239705189273952,3.1686085706906817,16,3.0323633124284886C13.795987786212768,2.8982893214771104,12.594028743666287,5.6845225378997934,10.684200114296642,6.792764515092946C8.779920814039283,7.897786308352879,6.426768649816262,8.051069884946331,4.798152395343422,9.532610270030354C2.858926491680613,11.296709998365355,0.5299360112264497,13.378634784321436,0.5629415104494377,15.999999999999996C0.5960013490935483,18.62568096522707,3.390248679692884,20.26888430026531,4.959838301330866,22.374040328623607C6.342823787494387,24.228920224102854,7.230638544754455,26.563059048075605,9.263059718096073,27.66872285581498C11.281042613544912,28.766532050779443,13.726147754049407,28.052869766235318,16,28.380033270401114" fill="#7ed0ec" strokewidth="0"/>
</g>
<g id="SVGRepo_tracerCarrier" stroke-linecap="round" stroke-linejoin="round"/>
<g id="SVGRepo_iconCarrier"> <defs> <style>.g{fill:none;stroke:#666666;stroke-linecap:round;stroke-linejoin:round;}</style> </defs> <path id="c" class="g" d="m40.5,5.5H7.5c-1.1046,0-2,.8954-2,2v33c0,1.1046.8954,2,2,2h33c1.1046,0,2-.8954,2-2V7.5c0-1.1046-.8954-2-2-2Z"/> <g> <path id="d" class="g" d="m20.373,11.5005h16.502v5h-16.502v-5Z"/> <path id="e" class="g" d="m20.373,21.5h16.502v5h-16.502v-5Z"/> <path id="f" class="g" d="m20.373,31.4995h16.502v5h-16.502v-5Z"/> <rect class="g" x="11.125" y="11.5005" width="5" height="5"/> <rect class="g" x="11.125" y="21.5" width="5" height="5"/> <rect class="g" x="11.125" y="31.4995" width="5" height="5"/> </g> </g>
</svg>